<?xml version="1.0" encoding="UTF-8" standalone="no"?>
<svg
   version="1.1"
   width="612"
   height="792"
   viewBox="0 0 612 792"
   id="svg49"
   sodipodi:docname="logo_time_reginamargherita.svg"
   inkscape:version="1.2.2 (b0a8486541, 2022-12-01)"
   xmlns:inkscape="http://www.inkscape.org/namespaces/inkscape"
   xmlns:sodipodi="http://sodipodi.sourceforge.net/DTD/sodipodi-0.dtd"
   xmlns="http://www.w3.org/2000/svg"
   xmlns:svg="http://www.w3.org/2000/svg">
  <sodipodi:namedview
     id="namedview51"
     pagecolor="#ffffff"
     bordercolor="#000000"
     borderopacity="0.25"
     inkscape:showpageshadow="2"
     inkscape:pageopacity="0.0"
     inkscape:pagecheckerboard="0"
     inkscape:deskcolor="#d1d1d1"
     showgrid="false"
     inkscape:zoom="0.99116162"
     inkscape:cx="305.70191"
     inkscape:cy="477.72229"
     inkscape:window-width="1854"
     inkscape:window-height="1011"
     inkscape:window-x="0"
     inkscape:window-y="0"
     inkscape:window-maximized="1"
     inkscape:current-layer="g47" />
  <defs
     id="defs5">
    <rect
       x="0.49657643"
       y="652.24526"
       width="611.38018"
       height="53.472611"
       id="rect211" />
    <clipPath
       id="clip_0">
      <path
         transform="matrix(1,0,0,-1,0,792)"
         d="M0 792H612V0H0Z"
         id="path2" />
    </clipPath>
  </defs>
  <g
     inkscape:groupmode="layer"
     inkscape:label="Layer 1"
     id="g47">
    <g
       clip-path="url(#clip_0)"
       id="g45">
      <path
         transform="matrix(1,0,0,-1,141.5962,298.4766)"
         d="M0 0C.019-90.579 73.519-164.231 163.96-164.302 255.028-164.372 328.825-90.755 328.85 .185 328.877 90.979 255.259 164.651 164.5 164.66 73.264 164.668-.019 91.314 0 0M164.388 179.846C263.83 179.834 344.18 99.472 344.13 .08 344.08-99.22 263.568-179.514 164.095-179.467 64.745-179.422-15.484-98.894-15.322 .618-15.161 99.873 65.041 179.858 164.388 179.846"
         fill="#735354"
         fill-rule="evenodd"
         id="path7" />
      <path
         transform="matrix(1,0,0,-1,309.5986,323.8315)"
         d="M0 0C5.265-.04 9.725 4.269 9.706 9.377 9.688 14.815 5.316 19.4 .066 19.492-4.979 19.579-9.559 15.177-9.731 10.075-9.906 4.928-5.184 .039 0 0M2.614-58.562C10.455-58.542 16.631-52.341 16.727-44.393 16.82-36.656 10.454-30.237 2.613-30.162-5.312-30.087-11.869-36.698-11.779-44.67-11.69-52.472-5.359-58.582 2.614-58.562M43.281-5.092C43.311-14.266 50.493-21.437 59.506-21.291 68.576-21.143 75.748-13.884 75.666-4.936 75.582 4.098 68.349 11.313 59.387 11.304 50.438 11.293 43.253 3.979 43.281-5.092M-118.587 90.408C-81.448 67.4-44.31 44.392-6.131 20.741-4.963 64.487-3.824 107.134-2.685 149.782-2.357 149.857-2.03 149.933-1.703 150.009-.913 145.799 .214 141.622 .614 137.375 3.99 101.55 7.273 65.715 10.479 29.874 11.041 23.605 11.549 17.374 15.57 12.201 16.693 10.756 18.317 9.208 19.987 8.778 24.318 7.662 28.856 6.352 33.211 6.641 36.51 6.859 40.274 8.748 42.76 11.051 55.872 23.2 75.662 18.75 81.317 2.098 84.497-7.266 81.017-17.933 72.902-23.687 64.651-29.54 53.496-29.616 45.882-23.205 40.219-18.437 35.209-12.899 29.812-7.807 27.943-6.042 25.868-4.464 23.743-3.012 19.745-.278 15.813 2.122 11.924-3.522 10.666-5.348 6.737-6.375 6.719-7.802 6.677-10.997 7.868-14.451 9.382-17.372 12.121-22.658 15.341-27.712 18.58-32.721 25.095-42.797 22.926-55.072 13.389-61.261 4.349-67.127-8.104-64.602-14.058-55.694-20.49-46.07-17.862-33.956-7.908-27.354-3.227-24.248 .646-13.606-1.235-8.582-1.574-7.674-2.688-7.025-3.51-6.334-6.877-3.505-10.232-.657-13.663 2.095-19.331 6.64-25.11 11.047-30.744 15.634-57.163 37.14-83.573 58.657-109.914 80.258-113.35 83.076-116.371 86.399-119.584 89.488-119.252 89.795-118.92 90.101-118.587 90.408"
         fill="#735354"
         fill-rule="evenodd"
         id="path9" />
      <path
         transform="matrix(1,0,0,-1,206.1685,604.8447)"
         d="M0 0V-2.397H-38.239V0H-26.015V95.889H-38.239C-42.6 95.889-46.414 93.541-49.683 88.848-52.954 84.151-55.11 77.76-56.151 69.669H-59.137L-57.004 95.739C-56.911 97.438-55.962 98.286-54.161 98.286H15.922C17.721 98.286 18.669 97.438 18.764 95.739L20.896 69.669H17.911C16.868 77.76 14.713 84.151 11.443 88.848 8.175 93.541 4.358 95.889 0 95.889H-12.226V0Z"
         fill="#735354"
         id="path11" />
      <path
         transform="matrix(1,0,0,-1,262.7441,508.9561)"
         d="M0 0V-95.889H12.227V-98.286H-26.014V-95.889H-13.788V0H-26.014V2.397H12.227V0Z"
         fill="#735354"
         id="path13" />
      <path
         transform="matrix(1,0,0,-1,297.2861,604.8447)"
         d="M0 0V95.889H-11.371V98.286H14.929L41.084 21.275 66.39 98.286H92.686V95.889H81.313V0H92.686V-2.397H56.152V0H67.524V93.941L35.825-2.397H33.977L2.275 93.343V0H13.648V-2.397H-11.371V0Z"
         fill="#735354"
         id="path15" />
      <path
         transform="matrix(1,0,0,-1,425.085,604.8447)"
         d="M0 0H22.886C26.203 0 28.95 .599 31.131 1.797 33.31 2.996 35.112 4.72 36.532 6.967 37.954 9.214 39.092 11.886 39.946 14.982 40.799 18.077 41.603 21.523 42.362 25.32 42.739 27.418 43.261 28.468 43.925 28.468 44.682 28.468 45.063 27.269 45.063 24.871V2.397C45.063-.801 43.688-2.397 40.941-2.397H-25.873V0H-13.789V95.889H-26.015V98.286H37.528C39.896 98.286 41.082 97.089 41.082 94.69V71.917C41.082 70.618 40.749 69.969 40.087 69.969 39.328 69.969 38.951 70.666 38.951 72.066 38.854 74.262 38.499 76.735 37.886 79.483 37.268 82.229 36.296 84.825 34.97 87.273 33.642 89.721 31.889 91.769 29.71 93.417 27.528 95.065 24.828 95.889 21.606 95.889H0V51.84H11.23C13.313 51.84 14.972 52.163 16.206 52.813 17.436 53.462 18.409 54.387 19.119 55.585 19.83 56.784 20.375 58.231 20.755 59.931 21.132 61.628 21.511 63.526 21.892 65.624 22.177 67.022 22.553 67.722 23.029 67.722 23.598 67.722 23.881 67.123 23.881 65.924V35.509C23.881 34.21 23.598 33.562 23.029 33.562 22.553 33.562 22.177 34.259 21.892 35.658 21.511 37.756 21.132 39.652 20.755 41.352 20.375 43.05 19.83 44.498 19.119 45.696 18.409 46.896 17.436 47.817 16.206 48.469 14.972 49.117 13.313 49.442 11.23 49.442H0Z"
         fill="#735354"
         id="path17" />
      <path
         transform="matrix(1,0,0,-1,167.4531,633.14456)"
         d="M0 0C0 1.164 .203 2.323 .609 3.479 1.015 4.634 1.61 5.671 2.396 6.59 3.18 7.509 4.141 8.249 5.278 8.813 6.415 9.377 7.705 9.659 9.148 9.659 10.863 9.659 12.333 9.268 13.561 8.485 14.788 7.704 15.699 6.686 16.294 5.431L14.373 4.175C14.084 4.793 13.736 5.312 13.331 5.73 12.925 6.148 12.482 6.484 12.004 6.74 11.526 6.993 11.034 7.176 10.529 7.286 10.024 7.395 9.527 7.449 9.041 7.449 7.976 7.449 7.032 7.227 6.211 6.78 5.391 6.334 4.7 5.753 4.141 5.034 3.582 4.315 3.162 3.506 2.882 2.605 2.603 1.706 2.463 .8 2.463-.109 2.463-1.129 2.629-2.097 2.964-3.016 3.297-3.934 3.762-4.748 4.357-5.457 4.953-6.166 5.657-6.73 6.469-7.149 7.281-7.567 8.165-7.776 9.122-7.776 9.626-7.776 10.146-7.714 10.678-7.585 11.21-7.459 11.72-7.254 12.207-6.972 12.695-6.689 13.15-6.336 13.574-5.907 13.998-5.48 14.346-4.966 14.616-4.366L16.646-5.485C16.339-6.212 15.91-6.853 15.36-7.407 14.81-7.963 14.188-8.432 13.493-8.813 12.798-9.196 12.063-9.486 11.287-9.688 10.511-9.887 9.753-9.987 9.013-9.987 7.696-9.987 6.486-9.696 5.387-9.113 4.286-8.531 3.333-7.772 2.531-6.835 1.727-5.898 1.105-4.834 .663-3.643 .221-2.451 0-1.237 0 0"
         fill="#735354"
         id="path19" />
      <path
         transform="matrix(1,0,0,-1,205.8379,640.8936)"
         d="M0 0C1.119 0 2.048 .218 2.788 .655 3.527 1.092 4.118 1.66 4.561 2.36 5.003 3.06 5.313 3.861 5.494 4.761 5.674 5.661 5.765 6.576 5.765 7.504V17.299H8.202V7.504C8.202 6.194 8.052 4.952 7.755 3.779 7.457 2.605 6.983 1.573 6.334 .682 5.684-.209 4.84-.914 3.803-1.433 2.765-1.951 1.507-2.211 .027-2.211-1.507-2.211-2.797-1.938-3.844-1.392-4.89-.847-5.734-.122-6.375 .777-7.015 1.678-7.476 2.714-7.755 3.889-8.035 5.061-8.174 6.267-8.174 7.504V17.299H-5.738V7.504C-5.738 6.539-5.644 5.607-5.454 4.707-5.265 3.806-4.949 3.01-4.507 2.319-4.065 1.627-3.478 1.068-2.747 .642-2.017 .213-1.101 0 0 0"
         fill="#735354"
         id="path21" />
      <path
         transform="matrix(1,0,0,-1,230.5796,633.8271)"
         d="M0 0H5.819C6.324 0 6.78 .109 7.186 .327 7.592 .547 7.94 .842 8.229 1.215 8.517 1.587 8.742 2.02 8.905 2.511 9.067 3.002 9.149 3.512 9.149 4.038 9.149 4.585 9.054 5.099 8.864 5.58 8.675 6.062 8.422 6.49 8.106 6.863 7.791 7.236 7.42 7.526 6.997 7.736 6.572 7.944 6.126 8.049 5.657 8.049H0ZM-2.436-9.141V10.232H5.792C6.64 10.232 7.42 10.056 8.133 9.701 8.846 9.346 9.459 8.872 9.974 8.282 10.488 7.689 10.89 7.026 11.179 6.291 11.467 5.554 11.612 4.803 11.612 4.038 11.612 3.365 11.517 2.716 11.328 2.088 11.138 1.461 10.867 .893 10.515 .383 10.164-.126 9.74-.563 9.243-.928 8.747-1.291 8.192-1.556 7.579-1.719L12.234-9.141H9.473L5.088-2.184H0V-9.141Z"
         fill="#735354"
         id="path23" />
      <path
         transform="matrix(1,0,0,-1,263.9849,626.4326)"
         d="M0 0-3.572-8.95H3.465ZM-8.905-16.535-1.001 2.838H1.002L8.878-16.535H6.279L4.006-10.858H-4.06L-6.307-16.535Z"
         fill="#735354"
         id="path25" />
      <path
         transform="matrix(1,0,0,-1,302.1104,633.14456)"
         d="M0 0C0 1.164 .202 2.323 .608 3.479 1.014 4.634 1.608 5.671 2.395 6.59 3.179 7.509 4.14 8.249 5.277 8.813 6.413 9.377 7.704 9.659 9.147 9.659 10.862 9.659 12.332 9.268 13.56 8.485 14.786 7.704 15.699 6.686 16.294 5.431L14.371 4.175C14.083 4.793 13.735 5.312 13.329 5.73 12.924 6.148 12.481 6.484 12.004 6.74 11.523 6.993 11.032 7.176 10.527 7.286 10.022 7.395 9.527 7.449 9.04 7.449 7.975 7.449 7.031 7.227 6.21 6.78 5.39 6.334 4.699 5.753 4.14 5.034 3.58 4.315 3.161 3.506 2.882 2.605 2.602 1.706 2.462 .8 2.462-.109 2.462-1.129 2.629-2.097 2.963-3.016 3.296-3.934 3.76-4.748 4.356-5.457 4.952-6.166 5.656-6.73 6.469-7.149 7.278-7.567 8.164-7.776 9.12-7.776 9.625-7.776 10.145-7.714 10.676-7.585 11.209-7.459 11.719-7.254 12.205-6.972 12.692-6.689 13.149-6.336 13.573-5.907 13.997-5.48 14.345-4.966 14.615-4.366L16.646-5.485C16.339-6.212 15.91-6.853 15.359-7.407 14.809-7.963 14.187-8.432 13.492-8.813 12.797-9.196 12.062-9.486 11.285-9.688 10.51-9.887 9.752-9.987 9.012-9.987 7.694-9.987 6.486-9.696 5.386-9.113 4.284-8.531 3.332-7.772 2.529-6.835 1.726-5.898 1.104-4.834 .662-3.643 .22-2.451 0-1.237 0 0"
         fill="#735354"
         id="path27" />
      <path
         transform="matrix(1,0,0,-1,339.6826,626.4326)"
         d="M0 0-3.572-8.95H3.465ZM-8.904-16.535-1.001 2.838H1.002L8.879-16.535H6.279L4.007-10.858H-4.061L-6.307-16.535Z"
         fill="#735354"
         id="path29" />
      <path
         transform="matrix(1,0,0,-1,363.5332,633.8271)"
         d="M0 0H5.603C6.108 0 6.563 .104 6.971 .313 7.375 .523 7.722 .815 8.012 1.188 8.3 1.561 8.526 1.992 8.688 2.483 8.851 2.975 8.932 3.493 8.932 4.038 8.932 4.603 8.837 5.13 8.648 5.621 8.458 6.113 8.205 6.539 7.891 6.904 7.574 7.268 7.204 7.55 6.78 7.749 6.355 7.949 5.909 8.049 5.439 8.049H0ZM-2.436-9.141V10.232H5.576C6.424 10.232 7.204 10.056 7.917 9.701 8.63 9.346 9.244 8.872 9.758 8.282 10.271 7.689 10.673 7.026 10.963 6.291 11.25 5.554 11.396 4.803 11.396 4.038 11.396 3.238 11.26 2.465 10.989 1.719 10.719 .973 10.334 .31 9.839-.272 9.343-.854 8.746-1.318 8.053-1.664 7.357-2.01 6.587-2.184 5.739-2.184H0V-9.141Z"
         fill="#735354"
         id="path31" />
      <path
         transform="matrix(1,0,0,-1,402.0264,640.7852)"
         d="M0 0V-2.183H-13.046V17.19H-.243V15.007H-10.61V8.732H-1.597V6.686H-10.61V0Z"
         fill="#735354"
         id="path33" />
      <path
         transform="matrix(1,0,0,-1,415.292,642.9678)"
         d="M0 0V19.373H2.436V2.183H13.154V0Z"
         fill="#735354"
         id="path35" />
      <path
         transform="matrix(1,0,0,-1,442.3369,642.9678)"
         d="M0 0V19.373H2.437V2.183H13.154V0Z"
         fill="#735354"
         id="path37" />
      <path
         transform="matrix(1,0,0,-1,0,792)"
         d="M468.379 168.378H470.816V149.03202H468.379Z"
         fill="#735354"
         id="path39" />
      <path
         transform="matrix(1,0,0,-1,312.1982,361.1396)"
         d="M0 0C-4.524 0-8.207-3.682-8.207-8.207-8.207-12.733-4.524-16.415 0-16.415 4.526-16.415 8.208-12.733 8.208-8.207 8.208-3.682 4.526 0 0 0M0-16.63C-4.644-16.63-8.422-12.853-8.422-8.207-8.422-3.563-4.644 .215 0 .215 4.644 .215 8.423-3.563 8.423-8.207 8.423-12.853 4.644-16.63 0-16.63"
         fill="#735354"
         id="path41" />
      <path
         transform="matrix(1,0,0,-1,310.376,369.6597)"
         d="M0 0H3.354C3.645 0 3.907 .062 4.142 .188 4.375 .312 4.576 .481 4.742 .695 4.908 .908 5.039 1.155 5.132 1.436 5.226 1.717 5.273 2.008 5.273 2.31 5.273 2.621 5.218 2.915 5.108 3.19 5 3.466 4.854 3.711 4.672 3.924 4.49 4.137 4.276 4.304 4.032 4.424 3.787 4.543 3.531 4.603 3.26 4.603H0ZM-1.404-5.226V5.851H3.338C3.826 5.851 4.276 5.75 4.687 5.547 5.098 5.344 5.452 5.073 5.748 4.735 6.045 4.397 6.275 4.018 6.442 3.597 6.609 3.175 6.692 2.746 6.692 2.31 6.692 1.924 6.638 1.553 6.528 1.194 6.42 .834 6.264 .51 6.061 .219 5.857-.072 5.613-.322 5.327-.53 5.041-.738 4.721-.889 4.367-.982L7.051-5.226H5.459L2.933-1.248H0V-5.226Z"
         fill="#735354"
         id="path43" />
    </g>
    <text
       xml:space="preserve"
       id="text209"
       style="white-space:pre;shape-inside:url(#rect211);display:inline;fill:#000000" />
    <text
       xml:space="preserve"
       style="font-style:normal;font-variant:normal;font-weight:bold;font-stretch:normal;font-size:32px;font-family:'Nimbus Roman';-inkscape-font-specification:'Nimbus Roman, Bold';font-variant-ligatures:normal;font-variant-caps:normal;font-variant-numeric:normal;font-variant-east-asian:normal;white-space:pre;inline-size:424.728;display:inline;fill:#735354;fill-opacity:1"
       x="252.71405"
       y="674.44147"
       id="text890"
       transform="translate(-121.08189,2.0296577)"><tspan
         x="252.71405"
         y="674.44147"
         id="tspan1254">REGINA MARGHERITA</tspan></text>
  </g>
</svg>
